PathFileType	4	(X/Y/Z)	C:/Users/opensim2020/Desktop/walking_exp_matlab/subject01_walking05_straight_04.trc																																																																																																																															
DataRate	CameraRate	NumFrames	NumMarkers	Units	OrigDataRate	OrigDataStartFrame	OrigNumFrames																																																																																																																											
100	100	6	43	mm	100	2775	283																																																																																																																											
Frame#	Time	LFHD			RFHD			LBHD			RBHD			C7			T10			CLAV			STRN			RBAK			LSHO			LUPA			LELB			LFRM			LWRA			LWRB			LFIN			RSHO			RUPA			RELB			RFRM			RWRA			RWRB			RFIN			LASI			RASI			LPSI			RPSI			LTHI			LKNE			LTIB			LANK			LHEE			LTOE			RTHI			RKNE			RTIB			RANK			RHEE			RTOE			*39			*40			*41			*42		
		X1	Y1	Z1	X2	Y2	Z2	X3	Y3	Z3	X4	Y4	Z4	X5	Y5	Z5	X6	Y6	Z6	X7	Y7	Z7	X8	Y8	Z8	X9	Y9	Z9	X10	Y10	Z10	X11	Y11	Z11	X12	Y12	Z12	X13	Y13	Z13	X14	Y14	Z14	X15	Y15	Z15	X16	Y16	Z16	X17	Y17	Z17	X18	Y18	Z18	X19	Y19	Z19	X20	Y20	Z20	X21	Y21	Z21	X22	Y22	Z22	X23	Y23	Z23	X24	Y24	Z24	X25	Y25	Z25	X26	Y26	Z26	X27	Y27	Z27	X28	Y28	Z28	X29	Y29	Z29	X30	Y30	Z30	X31	Y31	Z31	X32	Y32	Z32	X33	Y33	Z33	X34	Y34	Z34	X35	Y35	Z35	X36	Y36	Z36	X37	Y37	Z37	X38	Y38	Z38	X39	Y39	Z39	X40	Y40	Z40	X41	Y41	Z41	X42	Y42	Z42	X43	Y43	Z43
																																																																																																																																		
1	0	-1451.70972	1675.50134	-1531.05542	-1424.97815	1682.75049	-1420.73767	-1568.73682	1637.79651	-1507.36719	-1544.92224	1644.86853	-1390.64075	-1614.10693	1446.09167	-1452.60803	-1655.35938	1155.11499	-1424.82495	-1472.63074	1376.10986	-1470.06189	-1433.5752	1220.71082	-1476.61072	-1662.41345	1254.98108	-1360.33521	-1558.08875	1403.97388	-1620.04529	-1588.70325	1223.92725	-1706.85046	-1576.02881	1072.00647	-1723.25439	-1503.03333	989.68915	-1766.0614	-1381.53906	920.58722	-1774.32373	-1432.7063	892.0387	-1786.99707	-1365.62195	852.74371	-1816.64429	-1516.92346	1410.17761	-1313.43909	-1574.94116	1218.41162	-1195.86829	-1583.26208	1095.23547	-1186.59717	-1566.37244	977.58105	-1151.79358	-1505.70508	849.31506	-1173.25793	-1542.98572	859.30426	-1127.82556	-1519.08093	775.86017	-1131.01233	-1506.73291	940.24036	-1548.3114	-1470.87915	952.24255	-1336.35242	-1681.39917	960.38049	-1463.03101	-1653.6875	962.65546	-1320.08508	-1579.84253	614.29657	-1595.08386	-1603.6156	480.64606	-1579.25293	-1678.19714	304.28366	-1577.06152	-1709.43396	84.15373	-1521.4718	-1741.89734	58.48793	-1460.04456	-1567.04077	40.87071	-1558.75415	-1427.89624	630.04694	-1274.05273	-1387.56567	476.61472	-1306.59229	-1455.67419	313.42618	-1302.91333	-1499.70251	112.79412	-1353.16089	-1548.21521	78.42107	-1406.46265	-1369.43726	58.97578	-1350.9696	-1436.9884	1716.41687	-1442.44727	-1973.06812	1023.33234	3102.00171	-2012.46484	1021.953	3140.63184	NaN	NaN	NaN
2	0.01	-1443.10193	1674.90955	-1531.58044	-1416.75684	1682.00549	-1421.21338	-1560.22253	1637.25671	-1508.32239	-1536.71155	1644.16113	-1391.41785	-1605.70972	1445.62439	-1454.02222	-1647.62598	1154.72864	-1426.33301	-1464.3479	1375.30566	-1470.81714	-1425.52258	1219.90466	-1477.56177	-1654.76892	1254.50964	-1362.1405	-1548.96509	1403.54846	-1621.22498	-1578.7677	1223.76514	-1708.57788	-1565.22949	1072.03174	-1725.79407	-1490.40601	991.17792	-1768.50842	-1367.49585	924.80859	-1776.65149	-1417.98303	895.14337	-1789.54187	-1349.87036	857.28125	-1818.96472	-1509.15723	1409.02051	-1314.41187	-1569.24646	1218.03625	-1197.16992	-1578.88074	1094.96985	-1187.92737	-1562.92834	977.18207	-1152.74377	-1503.09277	848.42389	-1173.31445	-1540.85425	858.88324	-1128.10706	-1517.51685	775.245	-1131.276	-1499.32605	939.53241	-1549.7074	-1463.34998	951.84265	-1337.72717	-1673.9281	959.82306	-1464.52222	-1646.35327	962.0816	-1321.6593	-1574.61218	614.06342	-1595.76172	-1600.21985	480.51901	-1580.01477	-1676.14075	304.92218	-1577.55908	-1709.2168	85.15614	-1521.771	-1741.49377	59.4976	-1459.90576	-1566.88013	40.81301	-1558.89099	-1421.51599	629.44604	-1275.45654	-1380.17786	476.10471	-1308.18445	-1440.65918	310.38431	-1304.56396	-1472.88867	107.26362	-1355.2915	-1520.26758	70.21976	-1408.97925	-1340.39697	59.85725	-1352.38647	-1428.68713	1715.80042	-1442.91736	-1973.23401	1023.4295	3101.80566	-2012.51929	1021.99567	3140.66553	NaN	NaN	NaN
3	0.02	-1434.52197	1674.34106	-1532.00952	-1408.58569	1681.38892	-1421.48218	-1551.67041	1636.61072	-1509.13123	-1528.57947	1643.39771	-1392.21777	-1597.23523	1445.0094	-1455.2511	-1639.81262	1154.24963	-1427.73523	-1455.92505	1374.49963	-1471.59998	-1417.44226	1218.97571	-1478.37561	-1646.99683	1253.93481	-1363.76062	-1539.83655	1403.06921	-1622.24634	-1568.81226	1223.57349	-1710.18823	-1554.49976	1071.91003	-1728.05005	-1477.92383	992.62006	-1770.71204	-1353.69617	928.90662	-1778.68713	-1403.51636	898.27039	-1792.02075	-1334.5835	862.19373	-1821.47852	-1501.10193	1408.42102	-1315.32227	-1563.25439	1217.53894	-1198.34985	-1574.17712	1094.66028	-1189.23486	-1559.48059	976.8288	-1153.78687	-1500.11853	847.63617	-1173.42944	-1538.297	858.29193	-1128.73621	-1515.57617	774.29712	-1131.40247	-1491.90063	938.79663	-1551.01147	-1455.49756	951.07098	-1339.04199	-1666.44348	959.22144	-1465.98792	-1638.73059	961.3631	-1323.15979	-1569.39502	613.97333	-1596.35059	-1596.72168	480.50568	-1580.77466	-1674.10205	305.52658	-1577.88	-1708.27478	85.08858	-1520.97998	-1740.67126	60.53001	-1459.38818	-1566.75098	40.74509	-1559.00305	-1415.04773	627.95917	-1276.646	-1372.94617	475.54425	-1309.78894	-1425.76892	307.54062	-1305.77576	-1446.48425	102.64887	-1356.97974	-1491.82776	63.52936	-1410.55151	-1311.64893	61.84523	-1353.62866	-1420.36584	1715.16394	-1443.25171	-1972.95911	1023.75763	3101.92236	-2012.51953	1022.02576	3140.65039	NaN	NaN	NaN
4	0.03	-1425.92749	1673.66052	-1532.22107	-1400.33691	1680.49048	-1421.56201	-1543.12842	1635.88806	-1509.79443	-1520.40356	1642.58557	-1392.71985	-1588.75732	1444.41736	-1456.33777	-1631.86572	1153.63269	-1428.87878	-1447.44946	1373.63928	-1472.1936	-1409.21985	1218.07495	-1479.12329	-1639.09021	1253.25623	-1365.14758	-1530.72314	1402.50952	-1623.07141	-1558.95276	1223.42053	-1711.81812	-1543.83252	1071.77893	-1730.09192	-1465.54993	993.96832	-1772.67236	-1340.16895	932.80658	-1780.37781	-1389.21741	901.03931	-1793.77832	-1319.49597	866.57513	-1823.25647	-1493.27612	1407.4126	-1315.89001	-1557.16064	1217.02063	-1199.50647	-1568.99426	1094.16431	-1190.54211	-1555.87769	976.35828	-1154.59277	-1496.90735	846.6983	-1173.55212	-1535.55994	857.71155	-1129.19092	-1513.37659	773.70313	-1131.85364	-1484.33179	938.20306	-1552.36694	-1447.42773	950.30676	-1340.10425	-1658.66431	958.50037	-1467.03101	-1631.01172	960.60931	-1324.39575	-1564.10059	613.84528	-1596.75671	-1593.17542	480.48016	-1581.45386	-1671.85767	306.09161	-1577.99719	-1708.27026	86.60204	-1521.69116	-1740.69897	61.74389	-1459.73474	-1566.59436	40.68784	-1559.15015	-1408.98291	626.34235	-1277.60217	-1365.83569	474.73947	-1311.24695	-1410.68677	304.93274	-1307.07581	-1420.16357	98.85405	-1358.38074	-1463.36072	57.67036	-1412.18274	-1283.37244	64.53234	-1354.71582	-1412.08691	1714.34912	-1443.38074	-1973.10815	1023.89996	3101.94751	-2012.58203	1022.10229	3140.57861	NaN	NaN	NaN
5	0.04	-1417.34204	1672.97778	-1532.31775	-1392.14233	1679.80042	-1421.60181	-1534.57739	1635.13843	-1510.32544	-1512.22534	1641.67383	-1393.21997	-1580.28345	1443.71997	-1457.1936	-1623.89087	1153.03674	-1429.95752	-1438.92188	1372.83191	-1472.76477	-1400.96204	1217.15637	-1479.77783	-1631.09802	1252.49219	-1366.34631	-1521.67969	1401.99683	-1623.78687	-1549.12219	1223.20056	-1713.19031	-1533.22607	1071.61267	-1731.86487	-1453.37939	995.24982	-1774.41309	-1326.87732	936.44336	-1781.72327	-1375.25696	903.86176	-1795.5011	-1304.85974	871.20105	-1825.11169	-1485.19666	1406.45813	-1316.56311	-1551.04138	1216.4292	-1200.54456	-1563.6853	1093.73657	-1191.53967	-1551.77417	975.81049	-1155.43555	-1493.51013	845.74231	-1173.66565	-1532.50366	857.05878	-1129.72278	-1510.87427	772.83453	-1132.15601	-1478.23108	937.82202	-1554.4823	-1439.26282	949.39954	-1341.3092	-1650.93896	957.87457	-1468.11804	-1622.90479	959.65662	-1325.44995	-1558.69373	613.66846	-1597.15637	-1589.75208	480.65643	-1582.24072	-1669.74695	306.72357	-1578.01257	-1707.47705	86.91967	-1521.22852	-1740.14111	62.90385	-1459.59692	-1566.50598	40.7275	-1559.33618	-1403.17212	624.82666	-1278.41772	-1358.73669	473.87558	-1312.74854	-1395.53711	302.5903	-1308.18103	-1394.17639	95.90254	-1359.61389	-1435.3457	52.75457	-1413.35889	-1255.67493	68.412	-1355.94104	-1403.77197	1713.63135	-1443.3833	-1973.07629	1023.47559	3101.93091	-2012.52246	1021.99561	3140.6123	NaN	NaN	NaN
6	0.05	-1408.7124	1672.27332	-1532.30371	-1383.75098	1678.85986	-1421.38831	-1526.01135	1634.29846	-1510.63391	-1504.026	1640.78235	-1393.49219	-1571.71899	1442.96069	-1457.8551	-1615.69812	1152.29468	-1430.72681	-1430.43286	1371.8031	-1472.97986	-1392.62402	1216.18799	-1480.37939	-1622.96655	1251.64307	-1367.42273	-1512.65112	1401.41382	-1624.31006	-1539.30261	1222.84326	-1714.23218	-1522.63977	1071.18921	-1733.50256	-1441.35974	996.37299	-1775.82117	-1313.87207	939.94373	-1782.81519	-1361.57935	906.59454	-1797.07153	-1290.5072	875.42023	-1826.54041	-1477.09827	1405.33923	-1316.83582	-1544.63721	1215.77649	-1201.54028	-1558.0459	1093.1532	-1192.7616	-1547.30005	975.18115	-1156.20972	-1489.82336	844.78821	-1173.90283	-1529.12256	856.33478	-1130.25232	-1507.9812	771.94214	-1132.63159	-1470.52625	937.23224	-1555.8877	-1430.94739	948.37317	-1342.55872	-1642.92578	957.12274	-1468.87903	-1614.67529	958.72784	-1326.41089	-1553.23169	613.32947	-1597.48633	-1586.1665	480.71942	-1582.87805	-1667.50793	307.35867	-1577.80139	-1707.14099	88.25721	-1521.45483	-1739.77527	64.31488	-1459.48877	-1566.3667	40.67703	-1559.42432	-1397.50281	622.94702	-1279.10962	-1351.7002	472.88293	-1314.12183	-1380.53821	300.69089	-1309.02551	-1368.79297	93.8328	-1360.25183	-1408.06335	48.87487	-1414.04626	-1228.78345	72.76414	-1357.26819	-1395.46033	1712.77979	-1443.23425	-1972.97925	1023.79034	3101.8418	-2012.57605	1021.97675	3140.63818	NaN	NaN	NaN
